<?xml version="1.0" encoding="UTF-8"?>
<svg viewBox="0 0 50 50" version="1.1" xmlns="http://www.w3.org/2000/svg" xmlns:xlink="http://www.w3.org/1999/xlink">
    <title>metamask-fox</title>
    <g id="页面-1" stroke="none" stroke-width="1" fill="none" fill-rule="evenodd">
        <g id="链接弹窗" transform="translate(-771.000000, -377.000000)" fill-rule="nonzero">
            <g id="metamask-fox-2" transform="translate(771.000000, 377.000000)">
                <g id="metamask-fox" transform="translate(9.000000, 9.000000)">
                    <polygon id="路径" stroke="#E17726" fill="#E17726" points="31.9582 3.55271368e-15 18.8241 9.7183 21.2665 3.99099"></polygon>
                    <g id="编组" transform="translate(0.272810, 0.000000)" fill="#E27625" stroke="#E27625">
                        <polygon id="路径" points="1.39015 0 14.40729 9.809 12.08189 3.99098"></polygon>
                        <polygon id="路径" points="26.95669 22.5335 23.46199 27.8721 30.94489 29.9324 33.08849 22.6501"></polygon>
                        <polygon id="路径" points="2.22044605e-16 22.6501 2.13055 29.9324 9.60049 27.8721 6.11883 22.5335"></polygon>
                        <polygon id="路径" points="9.19779 13.5149 7.11919 16.6507 14.52419 16.9876 14.27729 9.0186"></polygon>
                        <polygon id="路径" points="23.87769 13.5149 18.72019 8.92786 18.55139 16.9876 25.95629 16.6507"></polygon>
                        <polygon id="路径" points="9.60049 27.8721 14.08239 25.7082 10.22409 22.702"></polygon>
                        <polygon id="路径" points="18.99309 25.7082 23.46199 27.8721 22.85149 22.702"></polygon>
                    </g>
                    <polygon id="路径" stroke="#D5BFB2" fill="#D5BFB2" points="23.7348 27.8721 19.2658 25.7082 19.6296 28.6107 19.5906 29.8417"></polygon>
                    <polygon id="路径" stroke="#D5BFB2" fill="#D5BFB2" points="9.8732 27.8721 14.0304 29.8417 14.0044 28.6107 14.3552 25.7082"></polygon>
                    <polygon id="路径" stroke="#233447" fill="#233447" points="14.1084 20.7842 10.3929 19.6958 13.0172 18.4907"></polygon>
                    <polygon id="路径" stroke="#233447" fill="#233447" points="19.5126 20.7842 20.6039 18.4907 23.2411 19.6958"></polygon>
                    <polygon id="路径" stroke="#CC6228" fill="#CC6228" points="9.8733 27.8721 10.5228 22.5335 6.39163 22.6502"></polygon>
                    <polygon id="路径" stroke="#CC6228" fill="#CC6228" points="23.0982 22.5335 23.7348 27.8721 27.2294 22.6502"></polygon>
                    <polygon id="路径" stroke="#CC6228" fill="#CC6228" points="26.2291 16.6507 18.8241 16.9876 19.5126 20.7842 20.6039 18.4907 23.2411 19.6958"></polygon>
                    <polygon id="路径" stroke="#CC6228" fill="#CC6228" points="10.3929 19.6958 13.0171 18.4907 14.1084 20.7842 14.7969 16.9876 7.39195 16.6507"></polygon>
                    <polygon id="路径" stroke="#E27525" fill="#E27525" points="7.392 16.6507 10.4969 22.702 10.393 19.6958"></polygon>
                    <polygon id="路径" stroke="#E27525" fill="#E27525" points="23.2412 19.6958 23.1243 22.702 26.2292 16.6507"></polygon>
                    <polygon id="路径" stroke="#E27525" fill="#E27525" points="14.797 16.9876 14.1084 20.7843 14.9788 25.2676 15.1737 19.3589"></polygon>
                    <polygon id="路径" stroke="#E27525" fill="#E27525" points="18.8242 16.9876 18.4604 19.346 18.6423 25.2676 19.5127 20.7843"></polygon>
                    <polygon id="路径" stroke="#F5841F" fill="#F5841F" points="19.5127 20.7842 18.6423 25.2676 19.2659 25.7082 23.1243 22.702 23.2412 19.6958"></polygon>
                    <polygon id="路径" stroke="#F5841F" fill="#F5841F" points="10.3929 19.6958 10.4969 22.702 14.3552 25.7082 14.9788 25.2676 14.1084 20.7842"></polygon>
                    <polygon id="路径" stroke="#C0AC9D" fill="#C0AC9D" points="19.5906 29.8417 19.6296 28.6107 19.2918 28.3256 14.3292 28.3256 14.0044 28.6107 14.0304 29.8417 9.8732 27.8721 11.3283 29.0642 14.2772 31.0986 19.3308 31.0986 22.2928 29.0642 23.7348 27.8721"></polygon>
                    <polygon id="路径" stroke="#161616" fill="#161616" points="19.2659 25.7082 18.6423 25.2676 14.9788 25.2676 14.3552 25.7082 14.0044 28.6107 14.3292 28.3256 19.2918 28.3256 19.6296 28.6107"></polygon>
                    <polygon id="路径" stroke="#763E1A" fill="#763E1A" points="32.5168 10.3532 33.6211 4.98873 31.9582 2.66453526e-15 19.2659 9.3944 24.1505 13.5149 31.0488 15.5234 32.5688 13.7482 31.9062 13.2687 32.9585 12.3099 32.1531 11.6879 33.2054 10.8845"></polygon>
                    <polygon id="路径" stroke="#763E1A" fill="#763E1A" points="0 4.98873 1.11724 10.3532 0.40273 10.8845 1.468 11.6879 0.66255 12.3099 1.71483 13.2687 1.05228 13.7482 2.57225 15.5234 9.4706 13.5149 14.3552 9.3944 1.66287 7.10542736e-15"></polygon>
                    <polygon id="路径" stroke="#F5841F" fill="#F5841F" points="31.0489 15.5234 24.1506 13.5149 26.2292 16.6507 23.1243 22.702 27.2295 22.6501 33.3613 22.6501"></polygon>
                    <polygon id="路径" stroke="#F5841F" fill="#F5841F" points="9.4705 13.5149 2.57222 15.5234 0.27278 22.6501 6.39161 22.6501 10.4968 22.702 7.39193 16.6507"></polygon>
                    <polygon id="路径" stroke="#F5841F" fill="#F5841F" points="18.8241 16.9876 19.2658 9.3944 21.2665 3.991 12.3546 3.991 14.3552 9.3944 14.7969 16.9876 14.9658 19.3718 14.9788 25.2676 18.6423 25.2676 18.6553 19.3718"></polygon>
                </g>
            </g>
        </g>
    </g>
</svg>