<svg fill="#6fbcf0" viewBox="0 0 100 100" xmlns="http://www.w3.org/2000/svg">
    <path fill="currentColor" fill-rule="evenodd" clipRule="evenodd" d="M20.6261 82.6352C23.5793 87.9044 27.8721 92.2893 33.0648 95.3407C38.2575 98.392 44.1633 100 50.1772 100C56.1911 100 62.097 98.392 67.2896 95.3407C72.4823 92.2893 76.7751 87.9044 79.7283 82.6352C82.7589 77.356 84.3544 71.3675 84.3544 65.2715C84.3544 59.1756 82.7589 53.1871 79.7283 47.9079L53.7376 2.0919C53.3817 1.45711 52.8645 0.928875 52.2389 0.561293C51.6133 0.193712 50.9018 0 50.1772 0C49.4527 0 48.7412 0.193712 48.1155 0.561293C47.4899 0.928875 46.9727 1.45711 46.6168 2.0919L20.6261 47.9079C17.5955 53.1871 16 59.1756 16 65.2715C16 71.3675 17.5955 77.356 20.6261 82.6352V82.6352ZM42.8556 23.8887L48.397 14.1199C48.575 13.8025 48.8336 13.5384 49.1464 13.3546C49.4592 13.1708 49.8149 13.074 50.1772 13.074C50.5395 13.074 50.8952 13.1708 51.2081 13.3546C51.5209 13.5384 51.7795 13.8025 51.9574 14.1199L73.2759 51.6999C75.1896 55.0319 76.3761 58.7356 76.7564 62.5645C77.1366 66.3935 76.702 70.26 75.4814 73.9069C75.2162 72.6638 74.8515 71.4443 74.3907 70.2604C71.446 62.6969 64.7878 56.8604 54.5971 52.9122C47.5909 50.2074 43.1186 46.2294 41.3014 41.0872C38.9609 34.4619 41.4055 27.2354 42.8556 23.8887ZM33.4064 40.5459L27.0785 51.6999C24.7094 55.8264 23.4621 60.5076 23.4621 65.2727C23.4621 70.0378 24.7094 74.7189 27.0785 78.8454C28.9936 82.2576 31.6321 85.204 34.8066 87.4752C37.9812 89.7465 41.6139 91.287 45.447 91.9873C49.28 92.6877 53.2194 92.5307 56.9853 91.5276C60.7513 90.5244 64.2515 88.6997 67.2374 86.1829C68.8874 81.94 68.9463 77.2381 67.4032 72.9547C65.2407 67.4902 60.0344 63.1277 51.9298 59.9857C42.7686 56.4489 36.8173 50.9274 34.243 43.5794C33.8963 42.5884 33.6168 41.5749 33.4064 40.5459V40.5459Z" />
</svg>