<svg width="30" height="30" viewBox="0 0 30 30" fill="none" xmlns="http://www.w3.org/2000/svg">
<path d="M9.12272 21.5668C6.93369 21.5282 5.04626 20.2431 4.14176 18.3916C4.26783 18.3987 4.3948 18.4022 4.52259 18.4022C5.12706 18.4022 5.71396 18.3224 6.27427 18.1709L6.24216 17.198C3.88835 16.7254 2.06382 14.7911 1.75311 12.3838C2.44552 12.6569 3.19493 12.8179 3.97775 12.8435L5.72686 12.9008L4.27199 11.9281C2.75498 10.9139 1.7565 9.18161 1.7565 7.22003C1.7565 6.44281 1.914 5.70154 2.19837 5.02547C5.30764 8.52512 9.75866 10.8055 14.7502 11.0568L15.4097 11.09L15.2629 10.4463C15.1678 10.0296 15.1168 9.59918 15.1168 9.15696C15.1168 6.0321 17.6492 3.5 20.7712 3.5C22.3981 3.5 23.8666 4.18666 24.8991 5.28472L25.0884 5.48604L25.3596 5.43288C26.3184 5.2449 27.2392 4.95004 28.1089 4.56165C27.633 5.3236 26.9803 5.96446 26.2088 6.42639L26.5252 7.35182C27.2191 7.26866 27.8952 7.13145 28.55 6.94375C27.9763 7.58503 27.3336 8.16485 26.6352 8.66987L26.4165 8.82797L26.4286 9.09752C26.4402 9.35506 26.4466 9.61442 26.4466 9.87043C26.4466 17.789 20.4231 26.8821 9.43363 26.8821C6.78375 26.8821 4.2784 26.2733 2.04329 25.1901C4.81995 25.0684 7.37072 24.0681 9.42231 22.4603L10.5307 21.5917L9.12272 21.5668Z" stroke="#1D9BF0"/>
</svg>
