<?xml version="1.0" encoding="UTF-8"?>
<svg viewBox="0 0 50 50" version="1.1" xmlns="http://www.w3.org/2000/svg" xmlns:xlink="http://www.w3.org/1999/xlink">
    <title>wc</title>
    <g id="页面-1" stroke="none" stroke-width="1" fill="none" fill-rule="evenodd">
        <g id="链接弹窗" transform="translate(-771.000000, -451.000000)" fill="#3B99FC" fill-rule="nonzero">
            <g id="wc-2" transform="translate(771.000000, 451.000000)">
                <g id="wc" transform="translate(1.000000, 10.000000)">
                    <path d="M10.0313166,5.86147613 C18.0221632,-1.95382538 30.9778854,-1.95382538 38.9687316,5.86147613 L39.9304429,6.80206016 C40.3299852,7.1928252 40.3299852,7.8263806 39.9304429,8.21714582 L36.6406205,11.4346965 C36.4408493,11.6300792 36.1169563,11.6300792 35.917185,11.4346965 L34.5937562,10.140341 C29.019142,4.68819129 19.9809064,4.68819129 14.406292,10.140341 L12.9890091,11.5264889 C12.7892378,11.7218715 12.4653446,11.7218715 12.2655736,11.5264889 L8.97575126,8.30893827 C8.57620894,7.91817305 8.57620894,7.28461767 8.97575126,6.89385261 L10.0313166,5.86147613 Z M45.772395,12.5157111 L48.7003433,15.3793474 C49.0998836,15.7701106 49.0998859,16.4036622 48.7003483,16.794428 L35.4980273,29.7069191 C35.0984878,30.097687 34.4507017,30.0976914 34.0511567,29.7069292 C34.051155,29.7069276 34.0511531,29.7069256 34.0511514,29.706924 L24.6809472,20.5425532 C24.5810617,20.4448619 24.4191151,20.4448619 24.3192296,20.5425532 C24.3192289,20.5425539 24.3192284,20.5425545 24.3192278,20.542555 L14.9492231,29.7069191 C14.5496848,30.097688 13.9018986,30.0976945 13.5023523,29.7069333 C13.5023499,29.706931 13.5023474,29.7069287 13.5023449,29.7069261 L0.299656625,16.7942635 C-0.0998855418,16.4034985 -0.0998855418,15.7699431 0.299656625,15.379178 L3.22761017,12.5155466 C3.62715234,12.1247815 4.27493854,12.1247815 4.67448089,12.5155466 L14.0448214,21.6800454 C14.1447071,21.7777367 14.3066534,21.7777367 14.4065391,21.6800454 C14.4065406,21.680044 14.4065419,21.6800427 14.4065434,21.6800415 L23.7764144,12.5155466 C24.1759475,12.1247725 24.8237338,12.1247579 25.2232852,12.5155139 C25.2232908,12.5155194 25.2232963,12.5155249 25.2233017,12.5155304 L34.5936299,21.6800415 C34.6935155,21.7777326 34.8554621,21.7777326 34.9553476,21.6800415 L44.3255244,12.5157111 C44.7250667,12.1249459 45.3728527,12.1249459 45.772395,12.5157111 Z" id="WalletConnect"></path>
                </g>
            </g>
        </g>
    </g>
</svg>